<svg width="550" height="400" viewBox="0 0 428 326" fill="none" xmlns="http://www.w3.org/2000/svg">
<path d="M194.989 87.0317L157.251 81.5496C155.721 81.3294 154.542 80.6764 154.583 80.1069C154.651 79.5374 155.937 79.2717 157.501 79.5222L195.158 85.6346C196.195 85.8017 196.98 86.2421 196.933 86.6293C196.885 86.9938 196.018 87.1836 194.989 87.0317Z" fill="#6C63FF"/>
<path d="M195.226 87.7534L157.373 83.3647C155.836 83.19 154.529 83.5089 154.481 84.0784C154.434 84.6479 155.66 85.2477 157.19 85.3996L195.111 89.1961C196.154 89.3024 197.007 89.0746 197.041 88.6874C197.068 88.2773 196.262 87.8749 195.226 87.7534Z" fill="#6C63FF"/>
<path d="M252.013 119.682L289.745 114.2C291.275 113.98 292.453 113.327 292.413 112.757C292.345 112.188 291.058 111.922 289.494 112.173L251.837 118.285C250.801 118.452 250.016 118.893 250.063 119.28C250.11 119.644 250.977 119.834 252.013 119.682Z" fill="#6C63FF"/>
<path d="M251.769 120.404L289.623 116.015C291.16 115.84 292.467 116.159 292.514 116.729C292.562 117.298 291.336 117.898 289.806 118.05L251.884 121.847C250.842 121.953 249.988 121.725 249.955 121.338C249.927 120.928 250.733 120.525 251.769 120.404Z" fill="#6C63FF"/>
<path d="M220.789 137.595C230.958 137.595 239.201 128.352 239.201 116.949C239.201 105.547 230.958 96.3037 220.789 96.3037C210.62 96.3037 202.377 105.547 202.377 116.949C202.377 128.352 210.62 137.595 220.789 137.595Z" fill="#FFD77C" stroke="#FFAB50" stroke-miterlimit="10"/>
<path d="M220.789 133.312C228.849 133.312 235.382 125.986 235.382 116.949C235.382 107.912 228.849 100.586 220.789 100.586C212.73 100.586 206.196 107.912 206.196 116.949C206.196 125.986 212.73 133.312 220.789 133.312Z" fill="#FFD77C" stroke="#FFAB50" stroke-miterlimit="10"/>
<path d="M220.789 129.417C226.93 129.417 231.908 123.835 231.908 116.949C231.908 110.064 226.93 104.481 220.789 104.481C214.648 104.481 209.67 110.064 209.67 116.949C209.67 123.835 214.648 129.417 220.789 129.417Z" fill="#FFD77C" stroke="#FFAB50" stroke-miterlimit="10"/>
<path d="M220.789 123.957C224.241 123.957 227.039 120.82 227.039 116.949C227.039 113.078 224.241 109.94 220.789 109.94C217.337 109.94 214.539 113.078 214.539 116.949C214.539 120.82 217.337 123.957 220.789 123.957Z" fill="#FFD77C" stroke="#FFAB50" stroke-miterlimit="10"/>
<path d="M210.049 148.78C220.218 148.78 228.461 139.536 228.461 128.134C228.461 116.732 220.218 107.488 210.049 107.488C199.881 107.488 191.637 116.732 191.637 128.134C191.637 139.536 199.881 148.78 210.049 148.78Z" fill="#FFD77C" stroke="#FFAB50" stroke-miterlimit="10"/>
<path d="M210.049 144.497C218.109 144.497 224.642 137.171 224.642 128.134C224.642 119.097 218.109 111.771 210.049 111.771C201.99 111.771 195.456 119.097 195.456 128.134C195.456 137.171 201.99 144.497 210.049 144.497Z" fill="#FFD77C" stroke="#FFAB50" stroke-miterlimit="10"/>
<path d="M210.049 140.602C216.19 140.602 221.168 135.02 221.168 128.134C221.168 121.248 216.19 115.666 210.049 115.666C203.908 115.666 198.93 121.248 198.93 128.134C198.93 135.02 203.908 140.602 210.049 140.602Z" fill="#FFD77C" stroke="#FFAB50" stroke-miterlimit="10"/>
<path d="M210.049 135.142C213.501 135.142 216.3 132.005 216.3 128.134C216.3 124.263 213.501 121.125 210.049 121.125C206.597 121.125 203.799 124.263 203.799 128.134C203.799 132.005 206.597 135.142 210.049 135.142Z" fill="#FFD77C" stroke="#FFAB50" stroke-miterlimit="10"/>
<path d="M231.529 148.78C241.698 148.78 249.941 139.536 249.941 128.134C249.941 116.732 241.698 107.488 231.529 107.488C221.36 107.488 213.117 116.732 213.117 128.134C213.117 139.536 221.36 148.78 231.529 148.78Z" fill="#FFD77C" stroke="#FFAB50" stroke-miterlimit="10"/>
<path d="M231.529 144.497C239.588 144.497 246.122 137.171 246.122 128.134C246.122 119.097 239.588 111.771 231.529 111.771C223.469 111.771 216.936 119.097 216.936 128.134C216.936 137.171 223.469 144.497 231.529 144.497Z" fill="#FFD77C" stroke="#FFAB50" stroke-miterlimit="10"/>
<path d="M231.529 140.602C237.67 140.602 242.648 135.02 242.648 128.134C242.648 121.248 237.67 115.666 231.529 115.666C225.388 115.666 220.41 121.248 220.41 128.134C220.41 135.02 225.388 140.602 231.529 140.602Z" fill="#FFD77C" stroke="#FFAB50" stroke-miterlimit="10"/>
<path d="M231.529 135.142C234.981 135.142 237.779 132.005 237.779 128.134C237.779 124.263 234.981 121.125 231.529 121.125C228.077 121.125 225.279 124.263 225.279 128.134C225.279 132.005 228.077 135.142 231.529 135.142Z" fill="#FFD77C" stroke="#FFAB50" stroke-miterlimit="10"/>
<path d="M182.428 122.12H259.144V126.16C259.144 130.148 258.443 134.098 257.082 137.783C255.721 141.468 253.725 144.816 251.21 147.636C248.695 150.457 245.709 152.694 242.423 154.22C239.136 155.747 235.614 156.532 232.057 156.532H209.514C205.957 156.532 202.435 155.747 199.149 154.22C195.863 152.694 192.877 150.457 190.361 147.636C187.846 144.816 185.851 141.468 184.49 137.783C183.128 134.098 182.428 130.148 182.428 126.16V122.12Z" fill="#005212"/>
<path opacity="0.1" d="M252.223 122.113C252.023 131.085 248.705 139.615 242.975 145.882C237.246 152.15 229.559 155.658 221.554 155.659H206.325C208.547 156.228 210.818 156.518 213.097 156.525H228.441C232.472 156.527 236.465 155.638 240.189 153.91C243.914 152.181 247.299 149.647 250.15 146.451C253.001 143.255 255.263 139.461 256.806 135.285C258.349 131.109 259.144 126.633 259.144 122.113H252.223Z" fill="black"/>
<path d="M190.994 83.9648H190.317V115.097H190.994V83.9648Z" fill="#FFD77C" stroke="#FFAB50" stroke-width="0.25" stroke-miterlimit="10"/>
<path d="M191.671 83.9648H190.994V115.097H191.671V83.9648Z" fill="#FFD77C" stroke="#FFAB50" stroke-width="0.25" stroke-miterlimit="10"/>
<path d="M192.348 83.9648H191.671V115.097H192.348V83.9648Z" fill="#FFD77C" stroke="#FFAB50" stroke-width="0.25" stroke-miterlimit="10"/>
<path d="M193.025 83.9648H192.348V115.097H193.025V83.9648Z" fill="#FFD77C" stroke="#FFAB50" stroke-width="0.25" stroke-miterlimit="10"/>
<path d="M193.703 83.9648H193.025V115.097H193.703V83.9648Z" fill="#FFD77C" stroke="#FFAB50" stroke-width="0.25" stroke-miterlimit="10"/>
<path d="M194.38 83.9648H193.703V115.097H194.38V83.9648Z" fill="#FFD77C" stroke="#FFAB50" stroke-width="0.25" stroke-miterlimit="10"/>
<path d="M195.057 83.9648H194.38V115.097H195.057V83.9648Z" fill="#FFD77C" stroke="#FFAB50" stroke-width="0.25" stroke-miterlimit="10"/>
<path d="M127.192 165.128H117.989V313.087H127.192V165.128Z" fill="#40414D"/>
<path d="M328.187 165.128H318.985V313.087H328.187V165.128Z" fill="#40414D"/>
<path d="M114.474 153.084H327.104C331.055 153.084 334.844 154.844 337.638 157.977C340.432 161.11 342.001 165.359 342.001 169.789V172.007H99.5769V169.789C99.5769 165.359 101.146 161.11 103.94 157.977C106.734 154.844 110.523 153.084 114.474 153.084Z" fill="#DFE6F5"/>
<path opacity="0.1" d="M113.797 153.084H326.427C330.378 153.084 334.167 154.844 336.961 157.977C339.755 161.11 341.324 165.359 341.324 169.789V172.007H98.8997V169.789C98.8997 165.359 100.469 161.11 103.263 157.977C106.057 154.844 109.846 153.084 113.797 153.084Z" fill="black"/>
<path d="M114.474 149.638H327.104C331.055 149.638 334.844 151.398 337.638 154.53C340.432 157.663 342.001 161.912 342.001 166.343V168.56H99.5769V166.343C99.5769 161.912 101.146 157.663 103.94 154.53C106.734 151.398 110.523 149.638 114.474 149.638Z" fill="#DFE6F5"/>
<path d="M323.589 288.136V277.817H124.124V288.136H323.589Z" fill="#40414D"/>
<path d="M49.3381 241.78H41.2867V323.922H49.3381V241.78Z" fill="#40414D"/>
<path d="M112.931 241.78H104.879V323.922H112.931V241.78Z" fill="#40414D"/>
<path d="M119.377 228.241C119.377 233.723 102.8 238.173 82.3499 238.173C61.8995 238.173 46.1284 233.731 46.1284 228.241C46.1284 222.751 61.8995 218.309 82.3499 218.309C102.8 218.309 119.377 222.781 119.377 228.241Z" fill="#F6C6CD"/>
<path d="M34.8468 228.234H119.37V236.51C119.37 238.625 118.621 240.653 117.288 242.148C115.954 243.643 114.146 244.483 112.26 244.483H47.0357C43.803 244.483 40.7027 243.043 38.4169 240.48C36.131 237.917 34.8468 234.44 34.8468 230.816V228.234Z" fill="#40414D"/>
<path d="M20.4931 133.259L22.237 132.818C23.4633 132.507 24.7493 132.756 25.8122 133.509C26.8751 134.261 27.6277 135.457 27.9045 136.832L49.0144 241.697L46.3723 242.366C44.1544 242.927 41.8285 242.478 39.9062 241.116C37.9839 239.754 36.6228 237.592 36.1221 235.105L16.8998 139.617C16.7625 138.935 16.7466 138.229 16.853 137.54C16.9593 136.851 17.1859 136.193 17.5197 135.602C17.8535 135.011 18.288 134.5 18.7982 134.098C19.3085 133.696 19.8844 133.411 20.4931 133.259Z" fill="#40414D"/>
<path d="M393.588 325.38H401.639V243.238H393.588V325.38Z" fill="#40414D"/>
<path d="M329.995 325.38H338.047V243.238H329.995V325.38Z" fill="#40414D"/>
<path d="M323.562 229.699C323.562 235.181 340.139 239.631 360.589 239.631C381.04 239.631 396.811 235.189 396.811 229.699C396.811 224.209 381.033 219.744 360.589 219.744C340.146 219.744 323.562 224.216 323.562 229.699Z" fill="#F6C6CD"/>
<path d="M395.89 245.949H330.666C328.78 245.949 326.971 245.109 325.638 243.614C324.305 242.118 323.555 240.09 323.555 237.976V229.699H408.079V232.281C408.079 235.906 406.795 239.382 404.509 241.946C402.223 244.509 399.123 245.949 395.89 245.949Z" fill="#40414D"/>
<path d="M396.565 243.823L393.923 243.154L415.036 138.275C415.313 136.9 416.066 135.704 417.129 134.951C418.191 134.198 419.477 133.95 420.704 134.26L422.448 134.702C423.674 135.012 424.74 135.856 425.411 137.048C426.083 138.239 426.304 139.682 426.028 141.057L406.802 236.56C406.302 239.044 404.943 241.204 403.024 242.566C401.105 243.928 398.782 244.38 396.565 243.823Z" fill="#40414D"/>
<path d="M399.432 197.724L401.808 196.882C401.808 196.882 397.745 166.448 397.786 139.174C397.786 138.415 397.786 137.602 397.786 136.82C397.834 135.119 397.888 133.433 397.962 131.786C398.057 129.675 398.077 127.663 398.064 125.711C398.287 99.4467 389.057 88.3531 389.057 88.3531C389.057 88.3531 378.223 71.0256 371.729 67.6543C371.167 65.6801 370.524 63.144 369.955 60.1978C370.165 60.0384 370.368 59.8789 370.564 59.7119C373.246 57.4811 375.812 55.0803 378.25 52.5212C381.582 49.0207 384.778 44.7534 384.602 39.9394C384.62 39.4707 384.606 39.0011 384.561 38.5346C383.945 32.7259 378.561 28.3523 376.388 22.8473C374.559 18.223 375.108 13.0749 373.51 8.38236C371.912 3.68981 366.332 -0.676249 362.12 1.79152C360.569 2.70269 359.635 4.31245 358.341 5.53494C355.132 8.57219 349.958 8.85313 345.57 7.47118C341.182 6.08923 339.882 0.455128 333.747 0.439941C334.292 0.644762 334.812 0.922658 335.297 1.26759C334.785 1.17078 334.266 1.12001 333.747 1.11574C334.995 1.55848 336.101 2.39726 336.933 3.53058C337.765 4.6639 338.286 6.0432 338.433 7.50156C338.423 7.68473 338.405 7.86722 338.379 8.04826C335.927 9.52892 332.704 8.68608 329.765 8.63293C326.826 8.57978 323.481 10.2427 323.772 12.9382C323.723 13.2445 323.723 13.5583 323.772 13.8646C324.158 15.9071 326.596 17.4485 326.894 19.3392C326.894 19.3924 326.894 19.4379 326.894 19.4911C321.455 22.5385 315.572 24.4624 309.525 25.1707C309.328 25.1707 309.416 25.4365 309.701 25.8237H309.525C308.421 25.9528 316.14 32.7942 317.021 33.2422C320.244 34.8824 324.097 36.0897 327.51 37.3501L327.808 37.4564C326.658 40.4518 326.066 43.6791 326.068 46.9402C326.068 58.6336 333.564 68.4592 343.715 71.2382C345.611 73.7212 347.602 76.4471 349.416 79.1579H349.288C349.288 79.1579 337.62 96.5613 337.993 122.553C337.959 125.81 338.113 129.067 338.453 132.302C330.95 131.824 314.827 129.607 302.563 119.538C286.02 105.969 267.568 110.039 271.414 118.179C275.26 126.319 294.959 133.099 298.135 133.783C298.433 133.844 299.123 134.026 300.112 134.299C296.198 135.127 293.516 136.577 293.679 138.528C293.997 142.257 310.859 154.132 321.036 154.808C327.761 155.256 335.853 157.58 342.238 159.622C342.855 175.226 339.489 179.903 339.489 179.903C339.489 179.903 340.491 180.594 342.15 181.574L341.439 183.852C337.309 186.525 332.216 189.311 327.585 190.435C321.682 191.795 315.945 193.936 310.493 196.813L287.585 209.228C285.539 210.292 283.769 211.924 282.442 213.969C281.115 216.013 280.274 218.404 280 220.914C279.499 226.176 280.914 232.752 288.58 237.968C289.054 242.243 291.383 247.232 297.498 251.803C309.349 260.641 340.491 287.118 344.73 290.733C344.812 297.194 344.053 310.156 336.943 312.176C328.032 314.712 335.203 324.325 342.408 323.945C344.117 324.67 345.978 324.823 347.764 324.385C355.402 322.35 383.396 311.477 385.306 295.213C385.385 294.507 385.421 293.797 385.414 293.087C385.525 290.314 384.909 287.565 383.64 285.182C383.939 285.917 384.181 286.679 384.365 287.46C382.049 281.537 376.408 277.817 372.02 275.721C372.02 275.668 372.02 275.607 372.02 275.554C371.343 275.258 370.666 275.015 370.11 274.795C370.122 274.355 370.092 273.914 370.022 273.481L326.122 239.563C326.122 239.563 345.211 221.924 364.937 224.642C384.663 227.36 387.805 223.344 387.805 223.344C387.805 223.344 397.922 212.554 398.937 200.131L399.574 199.942C399.574 199.942 399.526 199.16 399.432 197.724Z" fill="url(#paint0_linear)"/>
<path d="M345.821 286.071C345.821 286.071 347.615 308.22 338.636 310.908C329.657 313.596 338.04 324.333 345.218 322.298C352.396 320.263 378.744 309.541 380.539 293.444C382.333 277.346 362.58 271.963 362.58 271.963L345.821 286.071Z" fill="#B8616E"/>
<path opacity="0.05" d="M345.821 286.071C345.821 286.071 347.615 308.22 338.636 310.908C329.657 313.596 338.04 324.333 345.218 322.298C352.396 320.263 378.744 309.541 380.539 293.444C382.333 277.346 362.58 271.963 362.58 271.963L345.821 286.071Z" fill="black"/>
<path d="M349.43 286.739C349.43 286.739 351.224 308.888 342.245 311.576C333.266 314.264 341.649 325.001 348.827 322.966C356.005 320.931 382.354 310.209 384.148 294.112C385.943 278.014 366.19 272.631 366.19 272.631L349.43 286.739Z" fill="#B8616E"/>
<path opacity="0.1" d="M367.984 273.314L351.238 287.415C351.238 287.415 351.312 288.372 351.36 289.898C357.684 287.954 371.465 282.791 371.675 274.712C370.471 274.163 369.238 273.697 367.984 273.314Z" fill="black"/>
<path d="M357.508 80.3198H350.324V86.3639H357.508V80.3198Z" fill="#F8BDC5"/>
<path d="M350.628 177.982C350.628 177.982 339.218 188.036 329.846 190.42C324.274 191.772 318.872 193.891 313.764 196.73L292.21 209.016C290.252 210.12 288.573 211.757 287.326 213.777C286.079 215.798 285.304 218.137 285.072 220.58C284.456 227.414 286.907 236.404 301.534 241.749L347.629 284.711L361.998 271.287L312.91 229.008L350.628 202.827V177.982Z" fill="#758AC8"/>
<path opacity="0.1" d="M350.628 177.982C350.628 177.982 339.218 188.036 329.846 190.42C324.274 191.772 318.872 193.891 313.764 196.73L292.21 209.016C290.252 210.12 288.573 211.757 287.326 213.777C286.079 215.798 285.304 218.137 285.072 220.58C284.456 227.414 286.907 236.404 301.534 241.749L347.629 284.711L361.998 271.287L312.91 229.008L350.628 202.827V177.982Z" fill="black"/>
<path d="M344.04 133.016C344.04 133.016 321.89 133.684 306.322 120.26C290.754 106.835 273.398 110.859 276.987 118.916C280.576 126.972 299.137 133.684 302.13 134.353C305.123 135.021 348.225 148.453 348.225 148.453L344.04 133.016Z" fill="#F8BDC5"/>
<path opacity="0.05" d="M344.04 133.016C344.04 133.016 321.89 133.684 306.322 120.26C290.754 106.835 273.398 110.859 276.987 118.916C280.576 126.972 299.137 133.684 302.13 134.353C305.123 135.021 348.225 148.453 348.225 148.453L344.04 133.016Z" fill="black"/>
<path d="M346.437 171.954L339.252 196.123C339.252 196.123 298.846 223.982 295.548 227.672C292.988 230.542 289.562 241.772 301.534 251.165C313.506 260.558 346.43 290.103 346.43 290.103C346.43 290.103 371.573 284.028 369.779 272.638L328.472 239.077C328.472 239.077 346.43 221.613 364.991 224.308C383.552 227.004 386.545 222.964 386.545 222.964C386.545 222.964 400.915 206.836 396.12 191.422C391.326 176.008 346.437 171.954 346.437 171.954Z" fill="#758AC8"/>
<path d="M337.458 62.5674C337.458 62.5674 357.813 87.4044 356.615 94.7849C355.416 102.165 372.778 73.304 372.778 73.304C372.778 73.304 367.361 58.5354 368.587 42.4229L337.458 62.5674Z" fill="#F8BDC5"/>
<path opacity="0.1" d="M355.22 85.3466C356.608 83.7026 358.07 82.1389 359.601 80.6616C362.664 77.8449 365.474 74.6991 367.991 71.2689C372.182 65.1944 387.744 91.4059 387.744 91.4059C387.744 91.4059 397.319 103.487 396.127 132.356C394.935 161.225 397.624 199.821 397.624 199.821L394.001 200.952C390.949 202.094 387.703 202.424 384.518 201.917C381.333 201.409 378.297 200.078 375.65 198.029C370.869 194.323 364.815 190.435 360.21 190.086C351.231 189.418 343.146 183.708 343.146 183.708C343.146 183.708 347.039 173.305 341.053 139.736C335.067 106.167 350.324 82.3093 350.324 82.3093C350.324 82.3093 351.529 89.6139 355.22 85.3466Z" fill="black"/>
<path d="M399.716 196.79L396.127 198.134L393.994 198.932C390.943 200.074 387.696 200.405 384.511 199.897C381.326 199.39 378.29 198.058 375.643 196.008C370.869 192.31 364.808 188.415 360.204 188.066C351.238 187.39 341.08 180.009 341.08 180.009C341.08 180.009 347.067 171.285 341.08 137.716C335.094 104.147 350.358 80.3194 350.358 80.3194C350.358 80.3194 351.563 87.586 355.253 83.3111C356.639 81.6689 358.099 80.1077 359.628 78.6338C362.691 75.8171 365.501 72.6712 368.018 69.2411C372.21 63.1666 387.771 89.378 387.771 89.378C387.771 89.378 397.346 101.459 396.154 130.328C396.025 133.365 395.971 136.493 395.964 139.66C395.876 166.676 399.716 196.79 399.716 196.79Z" fill="#5E52AD"/>
<path opacity="0.1" d="M365.594 131.004L366.19 145.773C366.19 145.773 334.458 147.785 327.876 140.404C321.294 133.024 345.821 162.113 351.238 163.898C356.323 165.576 369.454 167.056 376.34 167.208C378.308 167.279 380.251 166.708 381.934 165.563C383.617 164.419 384.967 162.751 385.821 160.762C386.623 158.804 386.883 156.622 386.565 154.497C385.367 145.773 386.565 126.972 386.565 126.972L365.594 131.004Z" fill="black"/>
<path d="M365.594 129.66L366.19 144.429C366.19 144.429 334.458 146.441 327.876 139.06C321.294 131.68 297.478 133.312 297.945 139.06C298.243 142.75 314.109 154.497 323.677 155.173C333.246 155.849 345.821 160.769 351.238 162.553C356.323 164.231 369.454 165.712 376.34 165.864C378.308 165.935 380.251 165.364 381.934 164.219C383.617 163.075 384.967 161.406 385.821 159.417C386.623 157.46 386.883 155.278 386.565 153.153C385.367 144.429 386.565 125.628 386.565 125.628L365.594 129.66Z" fill="#F8BDC5"/>
<path opacity="0.1" d="M372.778 86.6984C372.778 86.6984 359.012 88.7106 360.806 111.536C362.601 134.36 364.998 136.373 364.998 136.373C364.998 136.373 385.353 134.36 387.744 133.685C390.134 133.009 388.942 108.179 388.942 108.179C388.942 108.179 388.34 86.0302 372.778 86.6984Z" fill="black"/>
<path d="M372.778 86.0296C372.778 86.0296 359.012 88.0418 360.806 110.867C362.601 133.692 364.998 135.704 364.998 135.704C364.998 135.704 385.353 133.692 387.744 133.016C390.134 132.34 388.942 107.511 388.942 107.511C388.942 107.511 388.34 85.3463 372.778 86.0296Z" fill="#5E52AD"/>
<path opacity="0.1" d="M367.686 56.8266C366.745 51.5114 368.675 49.8713 369.183 43.0679L338.033 63.2048C338.033 63.2048 341.602 67.5633 345.658 73.1594C347.471 73.6735 349.334 73.9286 351.204 73.9187C359.364 73.9567 363.826 64.1312 367.686 56.8266Z" fill="black"/>
<path d="M350.622 73.2733C362.855 73.2733 372.772 62.1534 372.772 48.4362C372.772 34.7191 362.855 23.5991 350.622 23.5991C338.389 23.5991 328.472 34.7191 328.472 48.4362C328.472 62.1534 338.389 73.2733 350.622 73.2733Z" fill="#F8BDC5"/>
<path opacity="0.1" d="M356.208 40.8963C352.822 43.3109 352.775 48.7704 354.956 52.5518C357.136 56.3331 360.894 58.8313 364.51 61.1851C365.56 61.8685 366.718 62.5747 367.896 62.4228C368.802 62.2249 369.641 61.7491 370.32 61.0485C372.851 58.8345 375.266 56.459 377.552 53.9337C380.843 50.3042 384.006 45.8319 383.491 40.7672C382.909 35.0192 377.844 30.6912 375.799 25.2469C374.079 20.691 374.593 15.5808 373.09 10.9262C371.587 6.27166 366.318 1.96636 362.377 4.40376C360.921 5.29975 360.041 6.9019 358.822 8.10921C355.802 11.1009 350.933 11.397 346.803 10.0303C342.672 8.6635 341.446 3.08257 335.683 3.06738C338.548 4.19876 340.485 7.54731 340.044 10.5997C337.735 12.0652 334.702 11.23 331.918 11.1768C329.135 11.1237 325.824 12.8701 326.305 15.6796C326.725 17.9575 329.657 19.6508 329.223 21.9287C324.137 24.9335 318.591 26.8396 312.877 27.5476C311.841 27.6767 319.1 34.4422 319.926 34.8901C322.953 36.5151 326.589 37.7072 329.792 38.9525C338.494 42.3162 347.405 43.5159 356.208 40.8963Z" fill="black"/>
<path d="M356.208 40.2206C352.822 42.6352 352.775 48.0947 354.956 51.8761C357.136 55.6574 360.894 58.1556 364.51 60.5094C365.56 61.1928 366.718 61.899 367.896 61.7471C368.802 61.5492 369.641 61.0734 370.32 60.3728C372.851 58.1588 375.266 55.7833 377.552 53.258C380.843 49.6285 384.006 45.1561 383.491 40.0915C382.909 34.3435 377.844 30.0154 375.799 24.5711C374.079 20.0153 374.593 14.9051 373.09 10.2505C371.587 5.59591 366.318 1.2906 362.377 3.728C360.921 4.62399 360.041 6.22614 358.822 7.43345C355.802 10.4251 350.933 10.7213 346.803 9.35451C342.672 7.98775 341.446 2.40679 335.683 2.3916C338.548 3.52298 340.485 6.87156 340.044 9.924C337.735 11.3895 334.702 10.5542 331.918 10.5011C329.135 10.4479 325.824 12.1943 326.305 15.0038C326.725 17.2817 329.657 18.975 329.223 21.2529C324.137 24.2578 318.591 26.1638 312.877 26.8719C311.841 27.0009 319.1 33.7664 319.926 34.2144C322.953 35.8394 326.589 37.0315 329.792 38.2768C338.494 41.6481 347.405 42.825 356.208 40.2206Z" fill="#916168"/>
<path opacity="0.1" d="M382.584 284.203C383.545 286.689 383.88 289.423 383.552 292.108C381.758 308.22 355.416 318.957 348.231 320.961C344.446 322.024 340.322 319.541 338.595 316.557C339.706 320.065 344.487 323.52 348.834 322.305C356.019 320.293 382.36 309.549 384.155 293.452C384.547 290.259 383.995 287.01 382.584 284.203Z" fill="white"/>
<path d="M192.335 302.509C191.8 301.158 189.023 298.523 175.636 297.954C166.467 297.566 163.345 292.137 162.499 286.837C165.512 286.397 167.869 285.789 168.641 284.947C168.641 284.947 168.6 284.704 168.533 284.271L168.641 284.18C168.055 280.357 167.75 276.487 167.727 272.608C167.709 269.289 168.023 265.978 168.661 262.737C169.034 260.594 169.191 258.411 169.128 256.229C169.203 243.321 165.16 220.633 165.16 220.633L164.605 201.779C164.549 199.427 163.929 197.135 162.81 195.144C161.691 193.153 160.115 191.537 158.246 190.465C156.917 189.694 155.444 189.283 153.946 189.266C153.946 189.266 132.724 185.515 113.621 183.472C112.267 182.25 107.493 178.954 96.55 180.845L90.2524 160.176C90.2015 159.926 90.1653 159.672 90.144 159.417C90.3675 156.79 91.9317 152.834 99.2248 152.583L100.748 154.102C100.748 154.102 101.019 153.502 101.473 152.583C110.52 152.469 159.804 151.907 162.343 152.583C165.14 153.342 189.64 147.222 190.344 146.463C199.865 136.053 162.343 141.102 162.343 141.102C158.653 141.778 146.728 140.973 134.512 139.857C140.559 129.69 146.247 95.1792 146.247 95.1792C146.247 95.1792 167.916 82.9315 161.646 76.0445C155.375 69.1576 136.448 91.3523 136.448 91.3523C136.448 91.3523 128.749 116.615 125.248 124.268C123.894 127.306 122.14 127.928 120.576 127.579C121.287 126.941 121.747 126.562 121.747 126.562C121.747 126.562 106.349 112.78 104.947 107.427C104.686 106.55 104.341 105.707 103.918 104.914C103.179 100.062 101.886 95.2855 98.7305 92.104C98.2005 91.4659 97.6152 90.8886 96.9834 90.3803C96.1302 89.697 95.1618 89.1047 94.356 88.3606C94.8097 86.0219 95.3379 83.5921 95.8864 81.2382C107.317 79.7196 116.201 69.0892 116.201 56.1809C116.2 54.2343 115.993 52.2947 115.585 50.4026C117.293 50.5287 119.002 50.1572 120.544 49.3244C122.087 48.4915 123.411 47.2255 124.388 45.6493C126.697 41.7919 126.623 36.5375 124.686 32.4676C123.886 30.8152 122.836 29.3304 121.585 28.0788C119.589 25.8252 117.156 24.1203 114.475 23.0977C112.152 22.1941 109.585 21.655 107.744 19.8858C106.92 18.6788 106.172 17.4103 105.502 16.0892C104.729 14.7921 103.82 13.6041 102.793 12.5508C99.4076 8.64037 94.6268 6.23335 89.758 5.17031C83.8261 3.87189 77.6978 4.33507 71.6642 4.79825C69.4093 4.9729 66.7616 5.42089 65.7458 7.6229C64.9806 9.2782 65.4817 11.26 65.3801 13.1051C65.0619 18.9746 59.0757 22.2169 53.8684 23.6368C48.661 25.0567 42.4514 26.2868 39.9391 31.4349C37.6571 36.0819 39.2619 41.716 39.9933 46.9325C41.2113 56.0918 39.3976 65.4344 34.8942 73.1971C32.6054 77.1227 29.653 80.6156 27.845 84.8298C25.842 89.5276 25.3769 94.866 26.5313 99.9097C26.8698 101.383 27.3574 102.886 27.1136 104.39C26.8365 105.629 26.2924 106.774 25.5291 107.723C22.4152 112.035 18.54 115.578 14.1467 118.13C9.75345 120.681 4.93705 122.187 0 122.552C0.414619 124.094 1.22478 125.465 2.32944 126.493C3.73285 128.049 5.36944 129.316 7.16439 130.237C11.8931 132.896 16.8656 134.971 21.9943 136.425C25.4478 137.405 29.0571 138.103 32.5716 137.435C36.0861 136.767 39.5125 134.512 40.9549 130.943C41.7945 128.877 41.9164 126.539 42.6613 124.436C44.1443 120.229 47.8213 117.503 50.3065 113.896C49.4696 123.19 49.0741 132.528 49.1215 141.869C49.1215 144.793 49.1215 147.427 49.1215 149.872C49.1215 160.419 48.4443 167.694 42.6139 180.868C41.9191 182.252 41.6145 183.841 41.7404 185.423C41.6136 186.279 41.6874 187.156 41.9546 187.969C42.2217 188.783 42.6729 189.504 43.264 190.063C42.8576 192.691 42.6605 195.354 42.6748 198.02C42.5936 207.618 45.4851 220.504 60.8161 223.769L88.1125 222.25C88.1125 222.25 126.609 213.829 137.105 219.972C137.972 220.179 138.749 220.712 139.307 221.483C139.865 222.254 140.171 223.216 140.173 224.209C140.14 224.848 140.052 225.481 139.909 226.1C139.616 228.089 139.505 230.107 139.577 232.121C139.53 245.029 142.008 274.324 142.008 274.324V286.746C140.261 289.692 138.108 294.051 138.385 297.263C138.385 297.331 138.385 297.407 138.385 297.475C138.385 297.544 138.385 297.665 138.426 297.756C138.466 297.847 138.426 297.923 138.473 298.007C138.521 298.09 138.514 298.166 138.534 298.25C138.554 298.333 138.588 298.432 138.622 298.515C138.656 298.599 138.67 298.652 138.697 298.72C138.724 298.789 138.785 298.918 138.832 299.009L138.913 299.168C138.995 299.315 139.085 299.454 139.184 299.586C142.685 304.142 160.176 312.958 165.783 312.601C171.735 312.221 191.678 313.36 192.382 303.413C192.471 303.116 192.455 302.792 192.335 302.509Z" fill="url(#paint1_linear)"/>
<path d="M142.577 283.284C142.577 283.284 134.451 294.674 137.837 299.23C141.222 303.785 158.152 312.495 163.569 312.138C169.325 311.758 188.624 312.897 189.301 303.026C189.301 303.026 190.655 298.47 173.049 297.711C155.443 296.952 160.86 276.45 160.86 276.45L142.577 283.284Z" fill="#594C76"/>
<path opacity="0.1" d="M45.7424 187.61C45.7424 187.61 37.6164 218.742 61.9943 224.057L88.4037 222.539C88.4037 222.539 125.648 214.186 135.805 220.261C135.805 220.261 139.868 221.02 138.514 227.094C137.159 233.169 140.545 274.172 140.545 274.172V287.839C140.545 287.839 163.569 287.839 166.277 284.802C166.277 284.802 164.246 272.653 166.277 262.782C168.309 252.911 162.892 221.779 162.892 221.779L162.357 203.039C162.317 200.724 161.728 198.462 160.649 196.487C159.571 194.512 158.043 192.894 156.222 191.802C154.94 191.04 153.514 190.634 152.064 190.617C152.064 190.617 106.017 182.265 89.7648 183.783C73.5129 185.302 45.7424 187.61 45.7424 187.61Z" fill="black"/>
<path d="M45.7424 186.851C45.7424 186.851 37.6164 217.983 61.9943 223.298L88.4037 221.78C88.4037 221.78 125.648 213.427 135.805 219.502C135.805 219.502 139.868 220.261 138.514 226.336C137.159 232.41 140.545 273.413 140.545 273.413V287.081C140.545 287.081 163.569 287.081 166.277 284.043C166.277 284.043 164.246 271.894 166.277 262.023C168.309 252.152 162.892 221.02 162.892 221.02L162.357 202.281C162.317 199.965 161.728 197.703 160.649 195.728C159.571 193.753 158.043 192.136 156.222 191.043C154.94 190.281 153.514 189.875 152.064 189.858C152.064 189.858 106.017 181.506 89.7648 183.024C73.5129 184.543 45.7424 186.851 45.7424 186.851Z" fill="#8B9CD1"/>
<path d="M115.49 125.347C115.49 125.347 120.908 132.94 124.293 125.347C127.679 117.754 135.128 92.6963 135.128 92.6963C135.128 92.6963 153.411 70.6763 159.506 77.5101C165.6 84.3439 144.608 96.4929 144.608 96.4929C144.608 96.4929 137.159 142.811 130.388 143.57C123.616 144.329 113.459 143.57 113.459 143.57L110.073 135.218L115.49 125.347Z" fill="#F8BDC5"/>
<path opacity="0.05" d="M115.49 125.347C115.49 125.347 120.908 132.94 124.293 125.347C127.679 117.754 135.128 92.6963 135.128 92.6963C135.128 92.6963 153.411 70.6763 159.506 77.5101C165.6 84.3439 144.608 96.4929 144.608 96.4929C144.608 96.4929 137.159 142.811 130.388 143.57C123.616 144.329 113.459 143.57 113.459 143.57L110.073 135.218L115.49 125.347Z" fill="black"/>
<path d="M91.1123 87.3813C91.1123 87.3813 103.301 103.327 104.656 108.642C106.01 113.957 120.908 127.625 120.908 127.625C120.908 127.625 110.073 136.737 112.104 141.292C114.136 145.848 97.8839 126.106 97.8839 126.106L78.9234 94.9745L91.1123 87.3813Z" fill="#EB6475"/>
<path opacity="0.1" d="M91.1123 87.3813C91.1123 87.3813 103.301 103.327 104.656 108.642C106.01 113.957 120.908 127.625 120.908 127.625C120.908 127.625 110.073 136.737 112.104 141.292C114.136 145.848 97.8839 126.106 97.8839 126.106L78.9234 94.9745L91.1123 87.3813Z" fill="black"/>
<path d="M99.2383 69.1574C99.2383 69.1574 93.1438 91.1775 93.1438 99.5299C93.1438 107.882 67.4116 97.2519 68.0888 92.6961C68.766 88.1402 82.9864 71.4354 83.6635 64.6016C84.3407 57.7677 99.2383 69.1574 99.2383 69.1574Z" fill="#F8BDC5"/>
<path opacity="0.1" d="M78.9234 84.344C78.9234 84.344 55.2227 77.5102 51.8369 116.235C48.451 154.96 54.5455 159.516 44.3881 183.055C34.2306 206.593 113.459 186.092 113.459 186.092C113.459 186.092 109.396 180.777 96.5296 183.055L90.4352 162.553C90.4352 162.553 88.4037 153.441 99.9154 153.441C111.427 153.441 106.01 126.865 106.01 126.865C106.01 126.865 99.9154 104.086 96.5296 101.808C93.1438 99.5302 87.0493 85.8626 78.9234 84.344Z" fill="black"/>
<path d="M78.9234 82.8249C78.9234 82.8249 55.2227 75.9911 51.8369 114.716C48.451 153.441 54.5455 157.997 44.3881 181.536C34.2306 205.074 113.459 184.573 113.459 184.573C113.459 184.573 109.396 179.258 96.5296 181.536L90.4352 161.034C90.4352 161.034 88.4037 151.922 99.9154 151.922C111.427 151.922 106.01 125.346 106.01 125.346C106.01 125.346 99.9154 102.567 96.5296 100.289C93.1438 98.0112 87.0493 84.3435 78.9234 82.8249Z" fill="#EB6475"/>
<path d="M102.624 137.496C102.624 137.496 152.057 143.571 160.183 142.052C160.183 142.052 196.479 137.041 187.269 147.367C186.592 148.126 162.892 154.201 160.183 153.442C157.474 152.682 99.9154 153.442 99.9154 153.442L99.2383 145.849L102.624 137.496Z" fill="#F8BDC5"/>
<path opacity="0.1" d="M64.703 118.513L100.593 154.96C100.593 154.96 107.364 139.774 109.396 139.774C111.427 139.774 85.0179 94.9741 85.0179 94.9741C85.0179 94.9741 78.2463 85.8623 74.1833 90.4182C70.1203 94.9741 57.9313 91.9368 64.703 118.513Z" fill="black"/>
<path d="M64.0258 116.994L99.9155 153.441C99.9155 153.441 106.687 138.255 108.719 138.255C110.75 138.255 84.3407 93.4555 84.3407 93.4555C84.3407 93.4555 77.5691 84.3438 73.5061 88.8997C69.4431 93.4555 57.2542 90.4183 64.0258 116.994Z" fill="#EB6475"/>
<path d="M93.1438 82.8251C105.485 82.8251 115.49 71.6066 115.49 57.7678C115.49 43.929 105.485 32.7104 93.1438 32.7104C80.8022 32.7104 70.7974 43.929 70.7974 57.7678C70.7974 71.6066 80.8022 82.8251 93.1438 82.8251Z" fill="#F8BDC5"/>
<path opacity="0.1" d="M112.714 51.4736C116.506 53.1517 121.151 51.1395 123.386 47.3201C125.621 43.5008 125.553 38.2995 123.67 34.2448C121.788 30.1901 118.307 27.2439 114.468 25.7101C112.138 24.7837 109.545 24.2522 107.757 22.3387C106.626 21.1314 105.956 19.4989 105.109 18.0259C101.947 12.4981 96.3062 9.23304 90.5706 7.9498C84.835 6.66656 78.9031 7.12213 73.0659 7.57772C70.8855 7.75236 68.3258 8.19277 67.3371 10.3796C66.599 12.0197 67.0798 13.9863 66.985 15.8163C66.6803 21.6402 60.8905 24.8673 55.8321 26.2644C50.7737 27.6615 44.9095 28.9751 42.4446 34.1081C40.2371 38.7171 41.8149 44.3056 42.4988 49.4842C43.6684 58.5297 41.9202 67.7464 37.569 75.4754C35.3547 79.3707 32.5039 82.8332 30.75 87.017C28.8099 91.6923 28.3605 96.973 29.4769 101.975C29.8087 103.441 30.276 104.929 30.0457 106.417C29.7804 107.641 29.2553 108.774 28.5154 109.72C25.5476 113.978 21.8162 117.491 17.5623 120.031C13.3083 122.571 8.62646 124.082 3.81921 124.466C4.59118 127.724 7.40141 129.781 10.0762 131.3C14.6404 133.932 19.4505 135.99 24.4185 137.435C27.7569 138.407 31.2511 139.098 34.6505 138.438C38.0498 137.777 41.3612 135.537 42.7764 131.999C43.589 129.948 43.7109 127.633 44.4287 125.537C46.0471 120.837 50.3607 117.997 52.6766 113.676C54.8909 109.546 55.7509 109.06 56.3129 104.291C56.875 99.5228 58.1142 94.3747 61.6083 91.5728C65.265 88.6343 70.4115 89.1962 74.4744 91.4513C78.5374 93.7065 81.0497 92.8257 84.4423 96.1363C90.3938 101.934 97.0546 106.746 104.222 110.427C103.545 103.805 102.455 96.4173 97.6605 92.4764C96.3062 91.345 94.593 90.4794 93.8752 88.7482C92.7308 85.9919 94.6878 82.6281 93.8007 79.7503C92.9136 76.8726 89.5413 75.8095 88.0448 73.1975C86.7717 70.9803 87.1171 67.9658 88.3089 65.6879C89.5007 63.4099 91.3832 61.7243 93.2589 60.1297C94.9248 58.7174 96.6132 57.338 98.3241 55.9915C99.8702 54.8913 101.258 53.5344 102.441 51.9671C103.118 50.9269 103.565 48.6489 104.507 47.9124C106.877 46.0749 110.52 50.5092 112.714 51.4736Z" fill="black"/>
<path d="M112.037 50.7139C115.829 52.3919 120.474 50.3798 122.709 46.5604C124.943 42.7411 124.876 37.5398 122.993 33.485C121.111 29.4303 117.63 26.4842 113.791 24.9504C111.461 24.024 108.868 23.4925 107.08 21.579C105.949 20.3717 105.279 18.7392 104.432 17.2661C101.27 11.7383 95.629 8.47327 89.8934 7.19003C84.1579 5.9068 78.2259 6.36237 72.3888 6.81796C70.2083 6.9926 67.6486 7.433 66.66 9.61982C65.9219 11.2599 66.4027 13.2266 66.3079 15.0565C66.0031 20.8804 60.2134 24.1075 55.155 25.5047C50.0966 26.9018 44.2323 28.2154 41.7674 33.3484C39.5599 37.9574 41.1377 43.5459 41.8216 48.7244C42.9912 57.77 41.2431 66.9867 36.8919 74.7157C34.6776 78.611 31.8267 82.0735 30.0728 86.2573C28.1327 90.9327 27.6833 96.2133 28.7998 101.216C29.1316 102.681 29.5988 104.169 29.3686 105.658C29.1032 106.881 28.5782 108.014 27.8382 108.961C24.8705 113.219 21.1391 116.731 16.8851 119.271C12.6312 121.811 7.94931 123.322 3.14206 123.707C3.91403 126.964 6.72426 129.022 9.39905 130.54C13.9633 133.173 18.7733 135.23 23.7414 136.676C27.0798 137.648 30.574 138.339 33.9733 137.678C37.3727 137.017 40.684 134.777 42.0993 131.239C42.9119 129.189 43.0338 126.873 43.7516 124.777C45.37 120.077 49.6835 117.237 51.9994 112.917C54.2137 108.786 55.0737 108.3 55.6358 103.532C56.1978 98.7632 57.437 93.615 60.9312 90.8132C64.5879 87.8746 69.7343 88.4365 73.7973 90.6917C77.8603 92.9468 80.3725 92.066 83.7651 95.3766C89.7166 101.174 96.3775 105.986 103.545 109.667C102.868 103.046 101.778 95.6576 96.9834 91.7168C95.629 90.5854 93.9158 89.7198 93.198 87.9885C92.0536 85.2322 94.0106 81.8685 93.1235 78.9907C92.2364 76.1129 88.8642 75.0498 87.3676 72.4378C86.0946 70.2206 86.4399 67.2061 87.6317 64.9282C88.8235 62.6502 90.706 60.9646 92.5818 59.37C94.2476 57.9577 95.936 56.5783 97.647 55.2318C99.1931 54.1316 100.581 52.7747 101.764 51.2074C102.441 50.1671 102.888 47.8892 103.829 47.1527C106.2 45.3151 109.843 49.7495 112.037 50.7139Z" fill="#916168"/>
<path opacity="0.1" d="M160.088 282.434C160.139 280.412 160.398 278.405 160.86 276.45L160.522 276.579C160.184 278.507 160.038 280.47 160.088 282.434Z" fill="white"/>
<path opacity="0.1" d="M163.569 310.619C158.152 310.976 141.222 302.267 137.837 297.711C137.392 297.094 137.119 296.344 137.051 295.555C136.952 296.195 136.97 296.851 137.105 297.483C137.24 298.115 137.489 298.71 137.837 299.23C141.222 303.786 158.152 312.495 163.569 312.138C169.325 311.758 188.624 312.897 189.301 303.026C189.352 302.754 189.318 302.47 189.206 302.221C187.655 311.318 169.183 310.247 163.569 310.619Z" fill="white"/>
<defs>
<linearGradient id="paint0_linear" x1="336.34" y1="324.666" x2="336.34" y2="0.439941" gradientUnits="userSpaceOnUse">
<stop stop-color="#808080" stop-opacity="0.25"/>
<stop offset="0.54" stop-color="#808080" stop-opacity="0.12"/>
<stop offset="1" stop-color="#808080" stop-opacity="0.1"/>
</linearGradient>
<linearGradient id="paint1_linear" x1="73400" y1="221411" x2="73400" y2="96245.7" gradientUnits="userSpaceOnUse">
<stop stop-color="#808080" stop-opacity="0.25"/>
<stop offset="0.54" stop-color="#808080" stop-opacity="0.12"/>
<stop offset="1" stop-color="#808080" stop-opacity="0.1"/>
</linearGradient>
</defs>
</svg>
