<svg width="550" height="400" viewBox="0 0 210 383" fill="none" xmlns="http://www.w3.org/2000/svg">
<path d="M209.271 91.6029H206.965V34.1355C206.965 29.7677 206.02 25.4426 204.182 21.4073C202.345 17.3719 199.651 13.7053 196.256 10.6168C192.861 7.52823 188.83 5.07827 184.394 3.40678C179.958 1.73529 175.204 0.874987 170.402 0.875H36.5627C31.7612 0.87499 27.0068 1.73529 22.5708 3.40679C18.1348 5.07829 14.1041 7.52824 10.709 10.6168C7.3138 13.7053 4.62061 17.3719 2.78316 21.4073C0.945713 25.4426 -5.30116e-06 29.7677 0 34.1356V349.406C-3.78654e-06 353.774 0.945713 358.099 2.78316 362.134C4.62061 366.169 7.3138 369.836 10.709 372.924C14.1041 376.013 18.1348 378.463 22.5708 380.134C27.0068 381.806 31.7612 382.666 36.5627 382.666H170.402C175.204 382.666 179.958 381.806 184.394 380.134C188.83 378.463 192.861 376.013 196.256 372.925C199.651 369.836 202.345 366.169 204.182 362.134C206.02 358.099 206.965 353.774 206.965 349.406V132.509H209.271V91.6029Z" fill="#3F3D56"/>
<path d="M171.878 9.52832H154.407C155.211 11.3202 155.517 13.2642 155.3 15.1893C155.083 17.1144 154.349 18.9613 153.162 20.5675C151.976 22.1736 150.373 23.4897 148.496 24.3997C146.619 25.3097 144.524 25.7858 142.397 25.7859H65.7216C63.5943 25.7858 61.4997 25.3097 59.6223 24.3997C57.7449 23.4897 56.1423 22.1736 54.9557 20.5675C53.7691 18.9613 53.035 17.1144 52.8179 15.1893C52.6008 13.2642 52.9075 11.3202 53.711 9.52832H37.3935C33.8078 9.52832 30.2572 10.1708 26.9445 11.419C23.6317 12.6673 20.6217 14.4969 18.0862 16.8033C15.5507 19.1098 13.5395 21.848 12.1673 24.8616C10.7951 27.8751 10.0889 31.105 10.0889 34.3669V349.174C10.0889 352.436 10.7951 355.666 12.1673 358.68C13.5395 361.693 15.5507 364.431 18.0862 366.738C20.6217 369.044 23.6317 370.874 26.9445 372.122C30.2572 373.37 33.8078 374.013 37.3935 374.013H171.878C175.463 374.013 179.014 373.37 182.327 372.122C185.64 370.874 188.65 369.044 191.185 366.738C193.721 364.431 195.732 361.693 197.104 358.68C198.476 355.666 199.182 352.436 199.182 349.174V34.3668C199.182 27.7792 196.306 21.4615 191.185 16.8033C186.064 12.1452 179.119 9.52831 171.878 9.52832Z" fill="white"/>
<path d="M175.567 58.7036H33.7039V169.394H175.567V58.7036Z" fill="#E6E6E6"/>
<path d="M75.8015 192.476C81.5344 192.476 86.1818 188.248 86.1818 183.033C86.1818 177.818 81.5344 173.59 75.8015 173.59C70.0687 173.59 65.4213 177.818 65.4213 183.033C65.4213 188.248 70.0687 192.476 75.8015 192.476Z" fill="#3A3A3A"/>
<path d="M80.9919 182.247H76.6668V178.312H74.9368V182.247H70.6117V183.821H74.9368V187.755H76.6668V183.821H80.9919V182.247Z" fill="white"/>
<path d="M130.586 192.476C136.319 192.476 140.966 188.248 140.966 183.033C140.966 177.818 136.319 173.59 130.586 173.59C124.853 173.59 120.206 177.818 120.206 183.033C120.206 188.248 124.853 192.476 130.586 192.476Z" fill="#3A3A3A"/>
<path d="M135.776 183.82V182.247H125.396V183.82H135.776Z" fill="white"/>
<path d="M109.927 72.5088H98.7157C98.3215 72.5088 97.9435 72.6512 97.6647 72.9048C97.386 73.1584 97.2294 73.5023 97.2294 73.8609V78.3372C97.2294 78.6958 97.386 79.0397 97.6647 79.2933C97.9435 79.5468 98.3215 79.6893 98.7157 79.6893H100.573V86.3964H108.069V79.6893H109.927C110.321 79.6893 110.699 79.5468 110.978 79.2933C111.256 79.0397 111.413 78.6958 111.413 78.3372V73.8609C111.413 73.5023 111.256 73.1584 110.978 72.9048C110.699 72.6512 110.321 72.5088 109.927 72.5088Z" fill="#FBC68D"/>
<path d="M121.155 113.475C114.29 104.336 110.78 93.4547 111.128 82.3897C111.135 82.1344 111.044 81.885 110.871 81.6839C110.698 81.4827 110.453 81.3422 110.18 81.2863V79.3521H98.3395V81.2594H98.1764C98.0168 81.2596 97.8589 81.2883 97.7116 81.3441C97.5642 81.3998 97.4304 81.4813 97.3177 81.5841C97.2051 81.6868 97.1158 81.8088 97.0549 81.943C96.994 82.0771 96.9628 82.2209 96.963 82.366C96.9631 82.3928 96.9642 82.4196 96.9663 82.4464C97.8991 94.2748 94.7494 104.882 87.5171 114.269C87.1009 114.808 86.8882 115.456 86.9111 116.115L88.2058 152.545C88.2369 153.358 88.6118 154.128 89.2522 154.695C89.8926 155.262 90.7491 155.582 91.6429 155.589H118.423C119.327 155.582 120.193 155.255 120.835 154.676C121.477 154.097 121.846 153.314 121.863 152.491L122.361 117.12C122.376 115.822 121.956 114.551 121.155 113.475Z" fill="#3F3D56"/>
<path opacity="0.2" d="M107.59 73.9668C107.59 74.7405 107.252 75.4824 106.65 76.0295C106.049 76.5766 105.233 76.8839 104.383 76.8839C103.532 76.8839 102.717 76.5766 102.115 76.0295C101.514 75.4824 101.176 74.7405 101.176 73.9668" fill="black"/>
<path d="M116.916 125.577H113.673C113.363 123.749 112.345 122.083 110.802 120.879C109.259 119.675 107.294 119.013 105.261 119.013C103.228 119.013 101.263 119.675 99.7197 120.879C98.1767 122.083 97.1584 123.749 96.8488 125.577H93.6056C93.2606 125.577 92.9196 125.644 92.6061 125.776C92.2926 125.907 92.0139 126.098 91.7893 126.336C91.5646 126.574 91.3992 126.854 91.3044 127.156C91.2097 127.458 91.1878 127.774 91.2402 128.085L94.7628 148.913H114.99L119.268 128.155C119.333 127.84 119.321 127.517 119.233 127.207C119.144 126.898 118.982 126.61 118.758 126.363C118.533 126.117 118.252 125.919 117.933 125.783C117.615 125.647 117.268 125.577 116.916 125.577V125.577Z" fill="#FBC68D"/>
<path d="M175.567 214.509H33.7039V325.199H175.567V214.509Z" fill="#E6E6E6"/>
<path d="M75.8015 348.282C81.5344 348.282 86.1818 344.054 86.1818 338.839C86.1818 333.624 81.5344 329.396 75.8015 329.396C70.0687 329.396 65.4213 333.624 65.4213 338.839C65.4213 344.054 70.0687 348.282 75.8015 348.282Z" fill="#3A3A3A"/>
<path d="M80.9919 338.052H76.6668V334.117H74.9368V338.052H70.6117V339.626H74.9368V343.56H76.6668V339.626H80.9919V338.052Z" fill="white"/>
<path d="M130.586 348.282C136.319 348.282 140.966 344.054 140.966 338.839C140.966 333.624 136.319 329.396 130.586 329.396C124.853 329.396 120.206 333.624 120.206 338.839C120.206 344.054 124.853 348.282 130.586 348.282Z" fill="#3A3A3A"/>
<path d="M135.776 339.625V338.052H125.396V339.625H135.776Z" fill="white"/>
<path d="M132.563 293.145L132.641 293.145C135.312 293.166 137.928 292.453 140.147 291.101C142.367 289.749 144.086 287.819 145.082 285.565C148.22 278.347 148.955 270.449 147.195 262.854C145.435 255.258 141.258 248.302 135.184 242.851C129.11 237.399 121.407 233.694 113.035 232.195C104.663 230.697 95.9913 231.472 88.0998 234.424C80.2083 237.376 73.4456 242.374 68.6539 248.796C63.8621 255.219 61.2529 262.781 61.1512 270.543C61.0494 278.304 63.4597 285.921 68.0818 292.446C72.7039 298.97 79.3336 304.114 87.1455 307.236C89.5735 308.214 92.2697 308.501 94.8805 308.061C97.4912 307.621 99.8948 306.473 101.776 304.768C105.811 301.078 110.608 298.152 115.892 296.157C121.176 294.162 126.842 293.139 132.563 293.145Z" fill="white"/>
<path d="M110.221 281.168C118.153 281.168 124.584 275.319 124.584 268.103C124.584 260.887 118.153 255.037 110.221 255.037C102.289 255.037 95.8582 260.887 95.8582 268.103C95.8582 275.319 102.289 281.168 110.221 281.168Z" fill="#F9A825"/>
</svg>
