<svg width="550" height="400" viewBox="0 0 547 300" fill="none" xmlns="http://www.w3.org/2000/svg">
<path d="M328.969 79.5518L232.38 60.5029" stroke="#3AD29F" stroke-width="3" stroke-miterlimit="10"/>
<path d="M207.429 53.3521C207.21 54.3625 207.234 55.4067 207.5 56.4071C207.3 56.8308 207.148 57.2731 207.045 57.7268C205.873 63.0368 211.775 68.6899 220.174 70.3464C228.573 72.0028 236.376 69.0525 237.548 63.7424C237.767 62.7319 237.743 61.6878 237.477 60.6874C237.677 60.2637 237.829 59.8214 237.932 59.3677C239.105 54.0576 233.202 48.4045 224.803 46.7481C216.404 45.0917 208.602 48.042 207.429 53.3521Z" fill="#F55F44"/>
<path d="M252.014 55.7488C248.16 52.8662 243.799 52.0058 242.274 53.827C240.749 55.6483 242.637 59.4615 246.491 62.3441C250.345 65.2267 254.706 66.0871 256.232 64.2659C257.757 62.4446 255.869 58.6314 252.014 55.7488Z" fill="#3AD29F"/>
<path d="M262.366 68.0105C261.739 65.7648 257.378 64.9051 252.625 66.0903C247.873 67.2755 244.528 70.0568 245.155 72.3025C245.782 74.5482 250.144 75.4079 254.896 74.2227C259.649 73.0375 262.993 70.2562 262.366 68.0105Z" fill="#3AD29F"/>
<path d="M329.184 74.5544L237.298 40.5911" stroke="#3AD29F" stroke-width="3" stroke-miterlimit="10"/>
<path d="M213.966 29.6284C213.572 30.5915 213.414 31.626 213.502 32.655C213.229 33.0435 213.001 33.4579 212.82 33.8914C210.685 38.9344 215.533 45.4318 223.542 48.3917C231.551 51.3517 239.75 49.6574 241.834 44.6141C242.227 43.6509 242.386 42.6164 242.298 41.5874C242.57 41.1989 242.799 40.7845 242.98 40.351C245.115 35.308 240.267 28.8107 232.258 25.8507C224.249 22.8907 216.042 24.5738 213.966 29.6284Z" fill="#F55F44"/>
<path d="M257.424 39.0208C254.13 35.5727 249.981 34.0391 248.157 35.5954C246.332 37.1516 247.524 41.2085 250.817 44.6566C254.111 48.1047 258.26 49.6383 260.084 48.082C261.908 46.5257 260.717 42.4689 257.424 39.0208Z" fill="#3AD29F"/>
<path d="M265.605 52.7257C265.383 50.4127 261.234 48.879 256.339 49.3002C251.444 49.7214 247.656 51.9379 247.879 54.2509C248.102 56.5639 252.251 58.0975 257.146 57.6763C262.041 57.2552 265.828 55.0387 265.605 52.7257Z" fill="#3AD29F"/>
<path d="M334.838 77.9094L253.826 24.6782" stroke="#3AD29F" stroke-width="3" stroke-miterlimit="10"/>
<path d="M233.877 8.85065C233.256 9.70099 232.846 10.6728 232.677 11.6936C232.317 12.0093 231.994 12.3595 231.711 12.7387C228.38 17.2274 231.424 24.5854 238.567 29.2474C245.71 33.9095 254.016 34.0417 257.288 29.5896C257.909 28.7393 258.319 27.7675 258.487 26.7466C258.847 26.431 259.171 26.0807 259.454 25.7015C262.725 21.2494 259.654 13.8764 252.588 9.23906C245.521 4.60172 237.091 4.42592 233.877 8.85065Z" fill="#F55F44"/>
<path d="M273.823 27.573C271.469 23.4955 267.811 21.092 265.654 22.2046C263.496 23.3171 263.656 27.5245 266.011 31.602C268.365 35.6794 272.023 38.0829 274.18 36.9704C276.338 35.8578 276.178 31.6504 273.823 27.573Z" fill="#3AD29F"/>
<path d="M278.399 42.721C278.752 40.4225 275.094 38.019 270.23 37.3526C265.365 36.6863 261.136 38.0094 260.783 40.3079C260.431 42.6065 264.088 45.0099 268.953 45.6763C273.817 46.3426 278.047 45.0195 278.399 42.721Z" fill="#3AD29F"/>
<path d="M326.111 88.4683L227.519 84.876" stroke="#3AD29F" stroke-width="3" stroke-miterlimit="10"/>
<path d="M201.492 86.1146C201.539 85.0832 201.832 84.0751 202.348 83.1652C202.263 82.7062 202.229 82.24 202.246 81.7743C202.424 76.3452 209.617 72.2224 218.21 72.5367C226.803 72.8509 233.601 77.5028 233.377 82.913C233.33 83.9444 233.037 84.9525 232.521 85.8624C232.606 86.3214 232.64 86.7876 232.622 87.2533C232.445 92.6823 225.252 96.8051 216.659 96.4909C208.066 96.1767 201.258 91.5229 201.492 86.1146Z" fill="#F55F44"/>
<path d="M251.581 86.626C250.568 84.5101 246.116 84.3475 241.638 86.263C237.16 88.1784 234.352 91.4464 235.365 93.5623C236.379 95.6782 240.83 95.8408 245.308 93.9254C249.786 92.01 252.595 88.742 251.581 86.626Z" fill="#3AD29F"/>
<path d="M249.907 76.6259C245.579 74.3962 241.114 74.2466 239.935 76.2916C238.755 78.3367 241.307 81.802 245.635 84.0317C249.963 86.2613 254.428 86.411 255.608 84.366C256.787 82.3209 254.235 78.8555 249.907 76.6259Z" fill="#3AD29F"/>
<path d="M252.775 99.0566C252.775 99.0566 250.878 83.6417 258.087 75.0041C265.296 66.3665 262.33 55.7898 264.452 46.178C266.575 36.5663 274.623 48.1839 277.806 33.7709C280.989 19.3579 314.012 86.0334 374.164 77.8742L367.799 106.7C367.799 106.7 326.258 78.4567 252.775 99.0566Z" fill="#F5F5F5"/>
<path opacity="0.1" d="M202.384 84.5238L207.997 83.9026L202.267 81.8168L202.384 84.5238Z" fill="black"/>
<path opacity="0.1" d="M208.034 58.0184L213.646 57.3973L207.916 55.3115L208.034 58.0184Z" fill="black"/>
<path opacity="0.1" d="M214.093 33.8139L219.748 34.0216L214.421 31.1272L214.093 33.8139Z" fill="black"/>
<path opacity="0.1" d="M232.537 12.9305L237.948 14.4707L233.575 10.4032L232.537 12.9305Z" fill="black"/>
<path opacity="0.1" d="M255.009 81.9565C255.009 81.9565 299.034 81.1396 314.775 84.2439C330.516 87.3482 369.37 97.5979 369.37 97.5979L370.101 94.2861C370.101 94.2861 263.469 76.7225 256.986 77.1236L255.009 81.9565Z" fill="black"/>
<path opacity="0.1" d="M263.07 61.9697C263.07 61.9697 299.754 77.835 315.514 80.9432C331.275 84.0514 371.204 89.3388 371.204 89.3388L370.472 92.6507C370.472 92.6507 268.616 69.9757 262.854 67.1113L263.07 61.9697Z" fill="black"/>
<path opacity="0.1" d="M263.845 54.3418C263.845 54.3418 301.217 71.2114 316.977 74.3196C332.738 77.4278 372.667 82.7151 372.667 82.7151L371.935 86.027C371.935 86.027 269.392 62.3478 263.627 59.4926L263.845 54.3418Z" fill="black"/>
<path d="M163.882 107.779H153.212V281.859H163.882V107.779Z" fill="#40414D"/>
<path d="M396.942 107.779H386.272V281.859H396.942V107.779Z" fill="#40414D"/>
<path d="M149.137 93.6104H395.686C400.267 93.6104 404.661 95.6811 407.901 99.3669C411.14 103.053 412.96 108.052 412.96 113.264V115.873H131.862V113.264C131.862 108.052 133.682 103.053 136.922 99.3669C140.161 95.6811 144.555 93.6104 149.137 93.6104Z" fill="#DFE6F5"/>
<path opacity="0.1" d="M148.351 93.6104H394.901C399.482 93.6104 403.876 95.6811 407.115 99.3669C410.355 103.053 412.175 108.052 412.175 113.264V115.873H131.077V113.264C131.077 108.052 132.897 103.053 136.137 99.3669C139.376 95.6811 143.77 93.6104 148.351 93.6104Z" fill="black"/>
<path d="M149.137 89.5547H395.686C400.267 89.5547 404.661 91.6254 407.901 95.3112C411.14 98.9971 412.96 103.996 412.96 109.209V111.817H131.862V109.209C131.862 103.996 133.682 98.9971 136.922 95.3112C140.161 91.6254 144.555 89.5547 149.137 89.5547Z" fill="#DFE6F5"/>
<path d="M391.611 252.504V240.363L160.325 240.363V252.504L391.611 252.504Z" fill="#40414D"/>
<path d="M38.8233 179.913H29.4874V297.351H38.8233V179.913Z" fill="#40414D"/>
<path d="M112.56 179.913H103.224V297.351H112.56V179.913Z" fill="#40414D"/>
<path d="M120.035 160.557C120.035 168.395 100.814 174.756 77.1012 174.756C53.3885 174.756 35.1014 168.405 35.1014 160.557C35.1014 152.708 53.3885 146.357 77.1012 146.357C100.814 146.357 120.035 152.751 120.035 160.557Z" fill="#F6C6CD"/>
<path d="M22.0203 160.546H120.028V172.379C120.028 175.402 119.159 178.302 117.613 180.439C116.067 182.577 113.97 183.778 111.783 183.778H36.1537C32.4053 183.778 28.8104 181.719 26.1598 178.054C23.5093 174.39 22.0203 169.42 22.0203 164.237V160.546Z" fill="#40414D"/>
<path d="M5.37677 24.7625L7.39878 24.1314C8.82072 23.6877 10.3119 24.0431 11.5443 25.1194C12.7768 26.1957 13.6495 27.9048 13.9704 29.8708L38.4479 179.795L35.3843 180.751C32.8126 181.554 30.1156 180.911 27.8867 178.965C25.6578 177.018 24.0795 173.927 23.499 170.371L1.21022 33.853C1.051 32.8778 1.03254 31.8687 1.15587 30.8836C1.27921 29.8985 1.54193 28.9568 1.92898 28.1123C2.31603 27.2678 2.81982 26.5372 3.41145 25.9624C4.00309 25.3876 4.67095 24.9798 5.37677 24.7625Z" fill="#40414D"/>
<path d="M507.562 299.435H516.898V181.997H507.562V299.435Z" fill="#40414D"/>
<path d="M433.824 299.435H443.16V181.997H433.824V299.435Z" fill="#40414D"/>
<path d="M426.365 162.641C426.365 170.479 445.587 176.84 469.299 176.84C493.012 176.84 511.299 170.489 511.299 162.641C511.299 154.792 493.004 148.409 469.299 148.409C445.595 148.409 426.365 154.803 426.365 162.641Z" fill="#F6C6CD"/>
<path d="M510.231 185.872L434.602 185.872C432.415 185.872 430.318 184.671 428.772 182.533C427.226 180.396 426.357 177.497 426.357 174.473V162.641L524.365 162.641V166.332C524.365 171.514 522.876 176.484 520.225 180.149C517.575 183.813 513.98 185.872 510.231 185.872Z" fill="#40414D"/>
<path d="M511.014 182.834L507.951 181.878L532.432 31.9324C532.753 29.9664 533.625 28.2573 534.858 27.1809C536.09 26.1046 537.581 25.7492 539.003 26.193L541.025 26.824C542.447 27.2678 543.683 28.4743 544.462 30.1782C545.24 31.8821 545.497 33.9439 545.176 35.9098L522.884 172.449C522.304 176.001 520.729 179.09 518.503 181.037C516.278 182.984 513.584 183.63 511.014 182.834Z" fill="#40414D"/>
</svg>
