<svg width="550" height="400" viewBox="0 0 366 389" fill="none" xmlns="http://www.w3.org/2000/svg">
<path d="M364.987 84.5845L364.961 84.7489L364.89 85.2243L357.563 134.912L312.699 150.468L311.996 150.151L286.878 138.877L273.89 91.7828L273 88.5498L273.271 88.4515L328.837 68.7231L364.954 84.5656L364.987 84.5845Z" fill="#E13C3C"/>
<path d="M311.996 150.151L286.878 138.877L273 88.5499L273.271 88.4517L309.472 102.885L311.996 150.151Z" fill="#E13C3C"/>
<path opacity="0.2" d="M312.626 149.576L293.52 114.974L295.974 105.165L284.417 92.3042L283.433 93.0942L294.567 105.484L286.25 138.736L287.507 139.018L293.066 116.79L311.481 150.14L312.626 149.576Z" fill="black"/>
<path d="M364.987 85.194L364.89 85.2243L309.472 103.495L273.89 91.7828L273 88.5498L273.271 88.4515L328.837 68.7231L364.954 84.5656L364.961 84.7489L364.987 85.194Z" fill="#4A2F2F"/>
<path d="M310.44 104.41L299.143 96.1754L301.725 87.0247L334.001 76.0435L355.949 77.2635L364.664 84.2794L365.309 86.1089L310.44 104.41Z" fill="#E13C3C"/>
<path d="M273.645 88.5497L299.143 87.634L312.956 83.2037L334.492 76.0432L338.52 70.5536L328.47 68.8535L273.645 88.5497Z" fill="#E13C3C"/>
<path d="M324.446 78.7329L311.151 83.1421L311.578 84.2931L324.873 79.8839L324.446 78.7329Z" fill="#CCCCCC"/>
<path d="M91.9871 234.843L91.9611 235.008L91.8901 235.484L84.563 285.172L39.699 300.728L38.996 300.41L13.878 289.137L0.89 242.042L0 238.809L0.271 238.711L55.837 218.983L91.9541 234.825L91.9871 234.843Z" fill="#E13C3C"/>
<path d="M38.996 300.41L13.878 289.137L0 238.809L0.271 238.711L36.472 253.145L38.996 300.41Z" fill="#E13C3C"/>
<path opacity="0.2" d="M39.626 299.835L20.52 265.234L22.974 255.425L11.417 242.563L10.433 243.354L21.567 255.745L13.25 288.996L14.507 289.277L20.066 267.05L38.481 300.4L39.626 299.835Z" fill="black"/>
<path d="M91.9871 235.454L91.8901 235.484L36.472 253.754L0.89 242.042L0 238.809L0.271 238.711L55.837 218.983L91.9541 234.825L91.9611 235.008L91.9871 235.454Z" fill="#4A2F2F"/>
<path d="M37.4401 254.67L26.1431 246.434L28.7251 237.284L61.0011 226.303L82.9491 227.523L91.6641 234.538L92.3091 236.369L37.4401 254.67Z" fill="#E13C3C"/>
<path d="M0.64502 238.809L26.143 237.894L39.956 233.463L61.492 226.303L65.52 220.812L55.47 219.113L0.64502 238.809Z" fill="#E13C3C"/>
<path d="M51.446 228.992L38.151 233.401L38.5784 234.552L51.8734 230.143L51.446 228.992Z" fill="#CCCCCC"/>
<path d="M107.616 323.69L66.6829 332.01L58.3199 293.95L73.725 274.401L87.5889 271.905L102.994 286.671L107.616 323.69Z" fill="#CCCCCC"/>
<path d="M88.6899 325.35H64.04L60.68 309.672L57 292.491L62.5 285.006L73.07 288.125L84.51 303.104L87.3799 318.366L87.58 319.453L88.6899 325.35Z" fill="#E6E6E6"/>
<path d="M130.063 316.203L101.674 319.322L106.736 285.215L118.179 275.44L128.082 277.728L134.685 292.078L130.063 316.203Z" fill="#CCCCCC"/>
<path d="M133.8 296.025L131.16 309.757L122.58 356.545L89.57 366.534L88.43 365.948L70.64 356.753L60.63 309.653L60.68 309.672L87.15 319.736L87.38 318.366L87.5401 317.374L89.57 305.183L98.5901 296.025L128.74 289.165L133.8 296.025Z" fill="#E6E6E6"/>
<path d="M112.898 294.574C116.787 294.574 119.94 291.594 119.94 287.919C119.94 284.243 116.787 281.264 112.898 281.264C109.008 281.264 105.855 284.243 105.855 287.919C105.855 291.594 109.008 294.574 112.898 294.574Z" fill="#E6E6E6"/>
<path d="M95.5835 291.354L79.5183 294.057L79.5955 294.467L95.6606 291.763L95.5835 291.354Z" fill="white"/>
<path d="M88.4299 365.948L70.64 356.753L60.63 309.653L60.68 309.672L57 292.491L62.5 285.006L73.07 288.125L84.51 303.104L87.3799 318.366L87.54 317.374L87.58 319.453L87.6899 325.35L88.4299 365.948Z" fill="#F2F2F2"/>
<path d="M70.857 356.812L70.4311 356.704L79.206 325.607L69.1581 313.088L69.5091 312.837L79.687 325.517L70.857 356.812Z" fill="#CCCCCC"/>
<path d="M75.8111 339.058L75.4147 339.239L89.3718 366.623L89.7683 366.442L75.8111 339.058Z" fill="#CCCCCC"/>
<path opacity="0.2" d="M132.068 306.907L130.415 315.536L130.332 315.544L122.933 355.883L89.9223 365.865L89.7242 365.955L89.5922 365.695L70.9962 356.091L70.7828 356.037L70.8972 355.629L60.983 308.985L61.0336 309.004L59.9354 303.883L60.7563 302.766L63.2937 299.314L73.8571 302.434L85.3008 317.408L85.4681 318.298L86.6696 324.687L87.1516 327.253L88.1705 332.675L89.1389 326.85L89.4866 324.753L90.3625 319.487L99.3854 310.337L103.397 309.424L106.19 308.787L110.032 307.914C108.841 307.229 107.891 306.226 107.303 305.031C106.716 303.835 106.517 302.502 106.732 301.2C106.947 299.898 107.566 298.686 108.511 297.716C109.456 296.747 110.685 296.065 112.04 295.756C113.396 295.448 114.818 295.526 116.127 295.982C117.435 296.438 118.571 297.251 119.39 298.318C120.209 299.385 120.674 300.657 120.727 301.974C120.78 303.291 120.418 304.593 119.687 305.715L129.535 303.474L131.962 306.766L132.068 306.907Z" fill="black"/>
<path d="M89.4819 341.74H64.834L57.792 308.88L63.294 301.393L73.857 304.513L85.301 319.487L89.4819 341.74Z" fill="#E6E6E6"/>
<path d="M123.373 372.937L90.3619 382.919L71.436 373.144L61.423 326.039L87.942 336.125L90.3619 321.567L99.3849 312.416L129.535 305.553L134.597 312.416L131.956 326.143L123.373 372.937Z" fill="#E6E6E6"/>
<path d="M113.69 310.96C117.579 310.96 120.732 307.981 120.732 304.305C120.732 300.63 117.579 297.65 113.69 297.65C109.801 297.65 106.648 300.63 106.648 304.305C106.648 307.981 109.801 310.96 113.69 310.96Z" fill="#E6E6E6"/>
<path d="M89.24 382.013L71.45 372.818L61.4399 325.718L61.4899 325.737L57.8099 308.556L63.3099 301.072L73.88 304.19L85.32 319.169L88.19 334.431L88.35 333.439L88.39 335.518L88.5 341.415L89.24 382.013Z" fill="#F2F2F2"/>
<path d="M71.649 373.198L71.2241 373.091L79.999 341.993L69.9501 329.474L70.3011 329.223L80.48 341.904L71.649 373.198Z" fill="#CCCCCC"/>
<path d="M76.6035 355.445L76.207 355.625L90.1642 383.009L90.5607 382.829L76.6035 355.445Z" fill="#CCCCCC"/>
<path d="M199.166 34.459L194.768 58.196L215.295 74.8127L224.825 43.9536L199.166 34.459Z" fill="#9F616A"/>
<path d="M215.661 56.2179C226.593 56.2179 235.455 46.653 235.455 34.854C235.455 23.0551 226.593 13.4902 215.661 13.4902C204.729 13.4902 195.867 23.0551 195.867 34.854C195.867 46.653 204.729 56.2179 215.661 56.2179Z" fill="#9F616A"/>
<path d="M172.774 196.724C172.865 203.617 200.678 280.327 196.817 290.316C190.729 297.032 177.635 332.779 172.041 342.315C171.308 342.315 167.643 354.183 167.643 354.183C167.643 354.183 176.44 369.217 185.97 362.887C197.954 332.467 227.965 315.5 228.496 275.852C229.944 288.377 234.22 368.772 234.22 368.772C234.22 368.772 233.4 369.148 251.864 371.057C254.73 324.396 266.444 245.013 240.219 195.141C232.156 191.186 172.774 196.724 172.774 196.724Z" fill="#2F2E41"/>
<path d="M234.219 367.207C233.362 368.986 227.216 385.406 232.809 387.053C239.259 388.951 245.512 386.291 245.512 386.291C245.512 386.291 256.804 390.1 263.714 385.259C266.939 381.778 266.207 378.614 264.667 376.319C263.885 375.189 262.884 374.257 261.733 373.587C260.583 372.918 259.311 372.528 258.006 372.444C254.499 372.174 253.386 371.473 252.984 369.739C252.398 367.207 234.219 367.207 234.219 367.207Z" fill="#2F2E41"/>
<path d="M173.898 352.868C173.898 352.868 158.142 358.238 161.459 364.503C163.613 368.387 166.759 371.517 170.519 373.521C170.519 373.521 173.805 388.143 182.927 388.143C187.489 388.143 189.044 385.346 189.458 382.549C189.646 381.153 189.548 379.729 189.173 378.378C188.798 377.026 188.155 375.78 187.287 374.725C184.984 371.858 184.656 370.512 185.508 368.979C186.752 366.741 173.898 352.868 173.898 352.868Z" fill="#2F2E41"/>
<path d="M243.889 199.041C243.889 199.041 240.953 205.37 229.224 202.994C217.495 200.625 171.311 202.994 171.311 202.994C171.311 202.994 173.873 146.422 168.009 112.397C162.144 78.3712 185.236 58.9858 185.236 58.9858L192.568 51.0716C199.901 50.2871 215.384 74.8445 215.384 74.8445C220.48 75.7661 225.236 99.1429 229.294 121.263C229.534 122.527 229.76 123.776 229.986 125.026C231.856 135.339 234.46 146.818 236.02 157.124C236.133 157.855 236.239 158.579 236.338 159.302C238.192 172.685 240.712 185.951 243.889 199.041Z" fill="#E6E6E6"/>
<path d="M192.505 21.5519C192.505 21.5519 188.804 12.7644 198.426 8.7701C198.426 8.7701 206.568 -5.60939 222.851 3.97695C222.851 3.97695 233.954 8.7701 233.954 21.5519C233.954 34.3336 237.654 36.7302 237.654 36.7302C237.654 36.7302 232.143 30.6279 230.663 25.8347C229.183 21.0416 217.67 19.9542 213.229 24.7473C208.788 29.5405 197.686 28.7416 197.686 28.7416L198.426 46.3165C198.426 46.3165 194.725 35.9314 193.245 35.9314C191.765 35.9314 190.285 21.5519 192.505 21.5519Z" fill="#2F2E41"/>
<path opacity="0.2" d="M236.02 157.124C218.532 146.864 190.204 124.363 181.065 112.191C169.018 96.1572 182.159 83.9699 182.159 83.9699C197.057 73.824 214.869 108.634 214.869 108.634L229.295 121.263C229.534 122.527 229.76 123.777 229.986 125.026C231.856 135.339 234.46 146.818 236.02 157.124Z" fill="black"/>
<path d="M288.225 145.3C288.225 145.3 314.225 156.692 318.504 143.886C322.783 131.08 297.977 131.3 297.977 131.3L288.239 132.789L288.225 145.3Z" fill="#9F616A"/>
<path d="M178.826 78.7585C178.826 78.7585 165.692 90.9529 177.73 106.981C189.768 123.01 245.093 157.257 245.093 157.257L281.13 146.743L291.328 148.757L293.251 128.091L278.227 129.674L240.088 120.91L215.769 99.6114C215.769 99.6114 193.72 68.618 178.826 78.7585Z" fill="#E6E6E6"/>
<path opacity="0.2" d="M226.674 225.661L228.972 283.612L223.146 225.661H226.674Z" fill="black"/>
</svg>
