<svg width="1920" height="549" viewBox="0 0 1920 549" fill="none" xmlns="http://www.w3.org/2000/svg">
<path d="M-759 400.4L-718.478 413.633C-677.956 427.866 -596.911 452.834 -515.867 493.533C-434.822 532.734 -353.778 587.666 -272.733 560.2C-191.689 532.734 -110.644 427.866 -29.6 320.5C51.4444 213.134 132.489 108.266 213.533 94.0334C294.578 80.8 375.622 160.7 456.667 240.6C537.711 320.5 618.755 400.4 699.8 387.167C780.844 372.934 861.889 268.066 942.933 240.6C1023.98 213.134 1105.02 268.066 1186.07 320.5C1267.11 372.934 1348.16 427.866 1429.2 360.45C1510.24 293.034 1591.29 108.266 1672.33 40.85C1753.38 -26.5657 1834.42 28.3656 1915.47 67.5665C1996.51 108.266 2077.56 133.234 2158.6 187.417C2239.64 240.6 2320.69 320.5 2401.73 413.633C2482.78 507.766 2563.82 612.634 2644.87 546.966C2725.91 480.3 2806.96 240.6 2847.48 120.75L2888 0.899963V720H2847.48C2806.96 720 2725.91 720 2644.87 720C2563.82 720 2482.78 720 2401.73 720C2320.69 720 2239.64 720 2158.6 720C2077.56 720 1996.51 720 1915.47 720C1834.42 720 1753.38 720 1672.33 720C1591.29 720 1510.24 720 1429.2 720C1348.16 720 1267.11 720 1186.07 720C1105.02 720 1023.98 720 942.933 720C861.889 720 780.844 720 699.8 720C618.755 720 537.711 720 456.667 720C375.622 720 294.578 720 213.533 720C132.489 720 51.4444 720 -29.6 720C-110.644 720 -191.689 720 -272.733 720C-353.778 720 -434.822 720 -515.867 720C-596.911 720 -677.956 720 -718.478 720H-759V400.4Z" fill="#FEB92C"/>
</svg>
